<svg xmlns="http://www.w3.org/2000/svg" viewBox="0 0 64 64"><g data-name="fast delivery"><path d="M59.18 24.83 55.15 49H28a1 1 0 0 0 0 2h28a1 1 0 0 0 1-.84l4.17-25a1 1 0 0 0-1.99-.33zM62.76 13.35C62.29 12.8 65.57 13 15 13a1 1 0 0 0 0 2h3.82l-.5 3H7a1 1 0 0 0 0 2h11a1 1 0 0 0 2 .16c0-.23-1-.16 10-.16a1 1 0 0 0 0-2h-9.65l.5-3h14.82c-1.78 6.25-1.87 6.07-1.47 6.6s.15.4 10.8.4a1 1 0 0 0 1-.73L47.75 15h13.07l-1 6a1 1 0 0 0 2 .33c1.24-7.61 1.36-7.48.94-7.98zM44.25 20h-7.92l1.42-5h7.92zM2 49a1 1 0 0 0 0 2 1 1 0 0 0 0-2zM24 30h-5.65l1-5.95a1 1 0 0 0-2-.32l-1 6.27H12a1 1 0 0 0 0 2h4l-.66 4H8a1 1 0 0 0 0 2h7l-1.85 11H6a1 1 0 0 0 0 2h13a1 1 0 0 0 0-2h-3.82L17 38h3a1 1 0 0 0 0-2h-2.65l.65-4h6a1 1 0 0 0 0-2zM4 36a1 1 0 0 0 0 2 1 1 0 0 0 0-2zM3 20a1 1 0 0 0 0-2 1 1 0 0 0 0 2z"/><path d="M43 46h8a1 1 0 0 0 0-2h-8a1 1 0 0 0 0 2zM52 41a1 1 0 0 0 0-2h-8a1 1 0 0 0 0 2zM24 49h-1a1 1 0 0 0 0 2h1a1 1 0 0 0 0-2z"/></g></svg>